# xmcd CD database file
#
# Track frame offsets:
#	182
#	15265
#	26400
#	40630
#	51205
#	72042
#	83280
#	94230
#	102000
#	113047
#	128777
#	142072
#	204052
#	219685
#	230557
#	243290
#	254355
#	266095
#
# Disc length: 3688 seconds
#
# Revision: 0
# Processed by: cddbd v1.4PL0 Copyright (c) Steve Scherf et al.
# Submitted via: CDex 1.40Beta9
#
DISCID=e60e6612
DTITLE=Q65 - The Revolution
DYEAR=1966
DGENRE=Blues
TTITLE0=The life i lve
TTITLE1=I got nihgtmares
TTITLE2=Just who's in sight
TTITLE3=Mr. Pitiful
TTITLE4=I'm a man
TTITLE5=Middle-age talk
TTITLE6=Summer thoughts in a field of weed
TTITLE7=Down in the bottom
TTITLE8=Get out of my life woman
TTITLE9=Spoonful
TTITLE10=Sour wine
TTITLE11=Bring it on home
TTITLE12=World of birds
TTITLE13=I despise you
TTITLE14=Ann
TTITLE15=You're the victor
TTITLE16=From above
TTITLE17=Where is the key
EXTD=YEAR: 1966 ID3G: 0
EXTT0=
EXTT1=
EXTT2=
EXTT3=
EXTT4=
EXTT5=
EXTT6=
EXTT7=
EXTT8=
EXTT9=
EXTT10=
EXTT11=
EXTT12=
EXTT13=
EXTT14=
EXTT15=
EXTT16=
EXTT17=
PLAYORDER=
